<svg xmlns="http://www.w3.org/2000/svg" width="1200" height="1000" viewBox="0 0 1200 1000" fill="none">
  <defs>
    <linearGradient id="bg" x1="0" y1="0" x2="1" y2="1">
      <stop offset="0" stop-color="#0f2f70"/>
      <stop offset="1" stop-color="#1f113f"/>
    </linearGradient>
    <radialGradient id="glow" cx="0" cy="0" r="1" gradientTransform="translate(900 220) rotate(150) scale(620 520)">
      <stop stop-color="#5eead4" stop-opacity="0.4"/>
      <stop offset="1" stop-color="#5eead4" stop-opacity="0"/>
    </radialGradient>
  </defs>
  <rect width="1200" height="1000" fill="url(#bg)"/>
  <rect width="1200" height="1000" fill="url(#glow)"/>
  <g opacity="0.35" stroke="#93c5fd" stroke-width="1">
    <path d="M0 120H1200"/>
    <path d="M0 220H1200"/>
    <path d="M0 320H1200"/>
    <path d="M0 420H1200"/>
    <path d="M0 520H1200"/>
    <path d="M0 620H1200"/>
    <path d="M0 720H1200"/>
    <path d="M0 820H1200"/>
    <path d="M120 0V1000"/>
    <path d="M260 0V1000"/>
    <path d="M400 0V1000"/>
    <path d="M540 0V1000"/>
    <path d="M680 0V1000"/>
    <path d="M820 0V1000"/>
    <path d="M960 0V1000"/>
    <path d="M1100 0V1000"/>
  </g>
  <circle cx="380" cy="340" r="120" fill="#3b82f6" fill-opacity="0.18"/>
  <circle cx="760" cy="650" r="200" fill="#8b5cf6" fill-opacity="0.16"/>
</svg>
